<svg width="71" height="17" viewBox="0 0 71 17" fill="none" xmlns="http://www.w3.org/2000/svg">
<path d="M0 6.375H17V10.625H0V6.375Z" fill="#273781"/>
<path fill-rule="evenodd" clip-rule="evenodd" d="M10.625 17C10.625 11.132 5.86803 6.375 0 6.375V10.625C3.52081 10.625 6.375 13.4792 6.375 17H10.625Z" fill="#142264"/>
<path fill-rule="evenodd" clip-rule="evenodd" d="M6.375 0C6.375 5.86803 11.132 10.625 17 10.625V6.375C13.4792 6.375 10.625 3.52081 10.625 1.85773e-07L6.375 0Z" fill="#142264"/>
<path d="M23 16.7135L29.1579 0H32.3811L38.539 16.7135H35.4841L30.7454 3.3427L26.0068 16.7135H23ZM25.7422 12.7739L26.5119 10.5056H34.8106L35.5803 12.7739H25.7422Z" fill="#121314"/>
<path d="M43.5789 17C42.6007 17 41.7588 16.809 41.0532 16.427C40.3636 16.029 39.8344 15.4401 39.4656 14.6601C39.0968 13.8642 38.9124 12.8853 38.9124 11.7233V4.67978H41.7989V11.4368C41.7989 12.4714 42.0153 13.2594 42.4483 13.8006C42.8973 14.3258 43.5708 14.5885 44.4689 14.5885C45.0462 14.5885 45.5593 14.4532 46.0083 14.1826C46.4734 13.912 46.8342 13.522 47.0908 13.0126C47.3634 12.4874 47.4997 11.8507 47.4997 11.1025V4.67978H50.3862V16.7135H47.62V14.7079C47.2511 15.4082 46.7139 15.9654 46.0083 16.3792C45.3188 16.7931 44.509 17 43.5789 17Z" fill="#121314"/>
<path d="M52.1545 16.7135V4.67978H54.9929V6.92416C55.2816 6.39888 55.6424 5.95318 56.0754 5.58708C56.5083 5.20506 57.0135 4.91058 57.5908 4.70365C58.1841 4.49672 58.8336 4.39326 59.5392 4.39326V7.42556H58.5289C58.0478 7.42556 57.5908 7.48923 57.1578 7.61657C56.7248 7.728 56.348 7.91901 56.0272 8.18961C55.7226 8.44429 55.482 8.80243 55.3056 9.26404C55.1292 9.70974 55.041 10.2748 55.041 10.9593V16.7135H52.1545Z" fill="#121314"/>
<path d="M64.313 17C63.3187 17 62.4929 16.8329 61.8354 16.4986C61.1779 16.1643 60.6888 15.7186 60.3681 15.1615C60.0474 14.6044 59.887 13.9995 59.887 13.3469C59.887 12.5829 60.0794 11.9223 60.4643 11.3652C60.8652 10.8081 61.4505 10.3783 62.2202 10.0758C62.99 9.75749 63.9361 9.59831 65.0586 9.59831H68.1135C68.1135 8.96161 68.0253 8.43633 67.8489 8.02247C67.6725 7.5927 67.3999 7.27434 67.0311 7.06742C66.6622 6.86049 66.1892 6.75702 65.6119 6.75702C64.9544 6.75702 64.3931 6.90824 63.9281 7.21067C63.463 7.49719 63.1744 7.94288 63.0621 8.54775H60.2238C60.32 7.6882 60.6086 6.95599 61.0897 6.35112C61.5708 5.73034 62.2042 5.25281 62.99 4.91854C63.7918 4.56835 64.6657 4.39326 65.6119 4.39326C66.7504 4.39326 67.7206 4.59223 68.5224 4.99017C69.3242 5.37219 69.9336 5.92931 70.3505 6.66152C70.7835 7.37781 71 8.24532 71 9.26404V16.7135H68.2578V14.7795C68.0975 15.0978 67.889 15.3923 67.6324 15.6629C67.3919 15.9335 67.1112 16.1723 66.7905 16.3792C66.4698 16.5702 66.101 16.7214 65.684 16.8329C65.2831 16.9443 64.8261 17 64.313 17ZM64.9624 14.7317C65.4275 14.7317 65.8364 14.6522 66.1892 14.493C66.558 14.3179 66.8707 14.0791 67.1273 13.7767C67.3999 13.4583 67.6084 13.1081 67.7527 12.7261C67.897 12.3441 67.9932 11.9382 68.0413 11.5084V11.4607H65.3713C64.8101 11.4607 64.345 11.5323 63.9762 11.6756C63.6074 11.8029 63.3428 11.9939 63.1824 12.2486C63.0221 12.5033 62.9419 12.7978 62.9419 13.132C62.9419 13.4663 63.0221 13.7528 63.1824 13.9916C63.3428 14.2303 63.5753 14.4134 63.88 14.5407C64.1847 14.6681 64.5455 14.7317 64.9624 14.7317Z" fill="#121314"/>
</svg>
